<svg width="24" height="24" viewBox="0 0 24 24" fill="none" xmlns="http://www.w3.org/2000/svg">
<path d="M12.1346 13.7079C12.1123 13.7079 12.0788 13.7079 12.0565 13.7079C12.023 13.7079 11.9783 13.7079 11.9448 13.7079C9.41086 13.6298 7.51318 11.654 7.51318 9.22045C7.51318 6.74231 9.53365 4.72184 12.0118 4.72184C14.49 4.72184 16.5104 6.74231 16.5104 9.22045C16.4993 11.6651 14.5904 13.6298 12.1681 13.7079C12.1458 13.7079 12.1458 13.7079 12.1346 13.7079ZM12.0007 6.3851C10.4379 6.3851 9.17644 7.65766 9.17644 9.20929C9.17644 10.7386 10.3709 11.9777 11.889 12.0335C11.9225 12.0223 12.0341 12.0223 12.1458 12.0335C13.6416 11.9554 14.8137 10.7274 14.8248 9.20929C14.8248 7.65766 13.5634 6.3851 12.0007 6.3851Z" fill="black"/>
<path d="M12.001 24.0001C8.99821 24.0001 6.12937 22.8839 3.90797 20.8522C3.70704 20.6736 3.61774 20.4057 3.64007 20.149C3.78518 18.8206 4.61123 17.5815 5.98425 16.6662C9.31077 14.456 14.7024 14.456 18.0177 16.6662C19.3908 17.5927 20.2168 18.8206 20.3619 20.149C20.3954 20.4169 20.2949 20.6736 20.094 20.8522C17.8726 22.8839 15.0038 24.0001 12.001 24.0001ZM5.39263 19.9257C7.24565 21.4774 9.57867 22.3257 12.001 22.3257C14.4233 22.3257 16.7563 21.4774 18.6094 19.9257C18.4084 19.2448 17.8726 18.5862 17.0801 18.0504C14.334 16.2197 9.67914 16.2197 6.91077 18.0504C6.11821 18.5862 5.59356 19.2448 5.39263 19.9257Z" fill="black"/>
<path d="M12 24C5.38047 24 0 18.6195 0 12C0 5.38047 5.38047 0 12 0C18.6195 0 24 5.38047 24 12C24 18.6195 18.6195 24 12 24ZM12 1.67442C6.30698 1.67442 1.67442 6.30698 1.67442 12C1.67442 17.693 6.30698 22.3256 12 22.3256C17.693 22.3256 22.3256 17.693 22.3256 12C22.3256 6.30698 17.693 1.67442 12 1.67442Z" fill="black"/>
</svg>
